<?xml version="1.0" encoding="UTF-8" standalone="no"?>
<svg
   xmlns:dc="http://purl.org/dc/elements/1.1/"
   xmlns:cc="http://creativecommons.org/ns#"
   xmlns:rdf="http://www.w3.org/1999/02/22-rdf-syntax-ns#"
   xmlns:svg="http://www.w3.org/2000/svg"
   xmlns="http://www.w3.org/2000/svg"
   viewBox="0 0 2245 293"
   height="293"
   width="2245"
   xml:space="preserve"
   id="svg2"
   version="1.1"><metadata
     id="metadata8"><rdf:RDF><cc:Work
         rdf:about=""><dc:format>image/svg+xml</dc:format><dc:type
           rdf:resource="http://purl.org/dc/dcmitype/StillImage" /><dc:title></dc:title></cc:Work></rdf:RDF></metadata><defs
     id="defs6" /><g
     transform="matrix(1.3333333,0,0,-1.3333333,0,292.99999)"
     id="g10"><g
       transform="matrix(0.05834592,0,0,0.05834592,620.05404,8.1007489e-7)"
       id="g12"><path
         id="path14"
         style="fill:#000000;fill-opacity:1;fill-rule:nonzero;stroke:none"
         d="m 3845.7,3353.93 c -69.33,0 -120.77,-62.63 -120.77,-136.43 0,-143.14 118.54,-246.03 216.95,-351.14 98.41,-105.13 199.05,-221.43 199.05,-366.81 0,-165.51 -129.72,-299.7 -295.23,-299.7 -156.56,0 -295.23,105.12 -295.23,254.97 0,78.28 46.97,152.09 118.54,152.09 78.28,0 118.54,-62.63 118.54,-120.78 0,-44.73 -22.36,-87.23 -69.33,-107.35 8.94,-60.39 58.15,-111.83 127.48,-111.83 69.34,0 120.78,62.62 120.78,136.43 0,143.14 -118.54,246.02 -216.95,351.14 -98.41,105.12 -199.06,221.43 -199.06,366.8 0,165.51 129.73,299.71 295.23,299.71 156.56,0 295.23,-105.12 295.23,-254.97 0,-78.29 -46.96,-152.09 -118.53,-152.09 -78.28,0 -118.54,62.62 -118.54,120.77 0,44.74 22.36,87.23 69.33,107.36 -8.95,60.39 -58.15,111.83 -127.49,111.83 z m 0,412.4 c -527.92,0 -955.89,-427.97 -955.89,-955.89 0,-527.92 427.97,-955.89 955.89,-955.89 527.93,0 955.9,427.97 955.9,955.89 0,527.92 -427.97,955.89 -955.9,955.89" /><path
         id="path16"
         style="fill:#000000;fill-opacity:1;fill-rule:nonzero;stroke:none"
         d="m 136.352,865.992 c 0,-34.41 3.16,-70.051 9.503,-106.941 6.329,-36.879 15.938,-72.981 28.829,-108.281 12.89,-35.301 29.168,-68.911 48.839,-100.821 19.68,-31.898 42.965,-59.73 69.879,-83.5 26.903,-23.758 57.207,-42.66 90.907,-56.687 33.683,-14.043 71.336,-21.043 112.949,-21.043 37.992,0 72.808,5.761 104.472,17.312 31.649,11.528 60.141,27.379 85.477,47.52 25.32,20.14 47.484,43.898 66.481,71.301 18.992,27.367 34.82,56.777 47.488,88.25 12.656,31.437 22.265,65.046 28.828,100.808 6.555,35.762 9.84,69.25 9.84,100.481 0,33.488 -3.629,70.597 -10.856,111.328 -7.242,40.742 -17.871,78.871 -31.883,114.401 -14.023,35.54 -31.207,68.8 -51.558,99.79 -20.352,31 -43.871,57.93 -70.551,80.79 -26.691,22.86 -56.426,40.85 -89.211,53.97 -32.797,13.12 -68.414,19.7 -106.844,19.7 -56.984,0 -106.964,-12.68 -149.921,-38.02 -42.973,-25.35 -78.7,-58.39 -107.188,-99.12 -28.492,-40.73 -49.863,-86.56 -64.105,-137.48 -14.25,-50.918 -21.375,-102.168 -21.375,-153.758 z M 0,840.531 c 0,38.891 4.29297,78.457 12.8906,118.707 8.5821,40.254 21.7032,79.262 39.3438,117.022 17.6367,37.77 39.7929,73.16 66.4806,106.17 26.68,33.01 57.887,61.96 93.621,86.84 35.723,24.86 76.199,44.43 121.43,58.68 45.218,14.25 95.199,21.37 149.925,21.37 56.528,0 107.969,-7.24 154.332,-21.71 46.352,-14.48 87.852,-34.03 124.481,-58.68 36.637,-24.66 68.402,-53.6 95.316,-86.84 26.903,-33.24 49.289,-68.75 67.16,-106.5 17.864,-37.77 31.208,-76.781 40.024,-117.02 8.82,-40.261 13.226,-79.609 13.226,-118.039 0,-38.449 -4.406,-77.679 -13.226,-117.711 -8.816,-40.019 -21.941,-78.922 -39.344,-116.679 -17.418,-37.762 -39.465,-73.262 -66.144,-106.5 -26.688,-33.243 -58,-62.301 -93.953,-87.18 C 729.605,387.59 689.125,367.91 644.125,353.449 599.121,338.98 549.258,331.738 494.543,331.738 c -58.797,0 -111.828,7.012 -159.078,21.032 -47.266,14.011 -89.211,33.121 -125.848,57.32 -36.629,24.191 -68.176,52.691 -94.633,85.48 C 88.5313,528.352 66.8203,563.512 49.8594,601.059 32.9023,638.59 20.3516,677.82 12.2109,718.75 4.06641,759.68 0,800.27 0,840.531" /><path
         id="path18"
         style="fill:#000000;fill-opacity:1;fill-rule:nonzero;stroke:none"
         d="m 1530.72,1003.34 c -16.28,0 -32.12,-2.16 -47.49,-6.449 -15.38,-4.309 -30.08,-9.969 -44.09,-16.993 -14.03,-7.019 -27.26,-15.277 -39.69,-24.777 -12.44,-9.5 -23.4,-19.473 -32.9,-29.883 0,-3.629 0.11,-7.828 0.34,-12.566 0.22,-4.75 0.34,-12.793 0.34,-24.102 0,-11.32 0,-27.289 0,-47.879 0,-20.609 -0.12,-48.23 -0.34,-82.871 -0.23,-34.629 -0.45,-77.75 -0.68,-129.359 -0.23,-51.621 -0.34,-114.102 -0.34,-187.441 23.07,-17.211 48.39,-30.571 75.98,-40.079 27.58,-9.5 56.53,-14.261 86.84,-14.261 33,0 62.63,7.922 88.86,23.769 26.23,15.852 48.61,37.91 67.16,66.223 18.54,28.297 32.79,61.808 42.74,100.519 9.94,38.707 14.93,81.149 14.93,127.329 0,37.582 -3.97,74.25 -11.88,110.011 -7.91,35.77 -20.35,67.699 -37.31,95.758 -16.95,28.07 -38.78,50.602 -65.46,67.582 -26.69,16.981 -59.02,25.469 -97.01,25.469 z M 1247.83,881.91 c 0,14.469 0.23,29.172 0.68,44.102 0.45,14.918 2.04,30.289 4.75,46.117 l -98.37,-5.418 v 58.339 c 30.3,0 54.95,1.02 73.95,3.05 18.99,2.04 34.26,4.85 45.79,8.48 11.53,3.62 20.46,7.57 26.8,11.87 6.32,4.3 11.97,8.92 16.95,13.91 h 40.71 c 0.9,-9.06 1.8,-19.67 2.71,-31.89 0.9,-12.21 1.8,-26.45 2.72,-42.732 14.01,12.203 29.5,23.512 46.47,33.912 16.95,10.4 34.82,19.22 53.59,26.47 18.76,7.22 37.87,12.88 57.32,16.95 19.44,4.07 38.89,6.1 58.34,6.1 40.25,0 78.8,-7.91 115.67,-23.74 36.85,-15.83 69.3,-38.56 97.35,-68.168 28.03,-29.633 50.42,-65.813 67.16,-108.551 16.72,-42.731 25.1,-91.012 25.1,-144.832 0,-39.34 -4.41,-76.43 -13.23,-111.258 -8.82,-34.82 -21.15,-66.82 -36.97,-95.992 -15.84,-29.168 -34.72,-55.289 -56.65,-78.348 -21.94,-23.07 -46.02,-42.633 -72.25,-58.691 -26.23,-16.051 -54.16,-28.371 -83.78,-36.969 -29.63,-8.582 -60.04,-12.883 -91.24,-12.883 -64.23,0 -119.63,15.16 -166.2,45.453 l -0.68,-229.972 c 0,-18.547 -0.24,-34.938 -0.68,-49.1877 -0.46,-14.25 -2.04,-29.2813 -4.75,-45.1094 l 87.51,4.0703 V 0 h -283.57 v 41.3906 c 21.26,0 37.42,4.1914 48.51,12.5508 11.08,8.3672 18.99,20.0078 23.74,34.9297 4.75,14.9299 7.46,32.8009 8.14,53.5899 0.68,20.809 1.24,43.66 1.7,68.519 l 2.71,670.93" /><path
         id="path20"
         style="fill:#000000;fill-opacity:1;fill-rule:nonzero;stroke:none"
         d="m 2425.14,1016.23 c -54.28,0 -99.05,-15.89 -134.32,-47.66 -35.28,-31.789 -58.58,-83.289 -69.88,-154.5 h 354.12 c 0,24.34 -2.71,48.559 -8.14,72.68 -5.43,24.121 -14.14,45.75 -26.12,64.898 -11.99,19.161 -27.47,34.711 -46.47,46.653 -18.99,11.959 -42.06,17.929 -69.19,17.929 z m 280.85,-252.359 -489.12,-8.152 c -0.45,-53.469 3.62,-101.949 12.21,-145.449 8.59,-43.5 22.16,-80.661 40.71,-111.469 18.54,-30.813 42.4,-54.602 71.57,-71.371 29.17,-16.758 64.1,-25.141 104.81,-25.141 21.71,0 43.86,2.961 66.48,8.871 22.61,5.91 44.43,13.981 65.47,24.219 21.02,10.242 40.36,22.512 57.99,36.851 17.64,14.321 32.33,29.68 44.1,46.059 l 33.92,-27.809 c -18.99,-28.941 -41.04,-53.488 -66.14,-73.601 -25.1,-20.141 -51.11,-36.539 -78.02,-49.188 -26.91,-12.671 -53.93,-21.812 -81.06,-27.472 -27.14,-5.66 -52.47,-8.481 -75.99,-8.481 -47.94,0 -92.59,8.594 -133.97,25.774 -41.39,17.187 -77.24,41.828 -107.53,73.949 -30.31,32.109 -54.16,70.781 -71.57,116 -17.41,45.219 -26.12,96.098 -26.12,152.641 0,48.847 8.36,95.539 25.1,140.089 16.73,44.539 40.47,84 71.23,118.379 30.76,34.36 67.61,61.72 110.58,82.08 42.96,20.35 90.67,30.52 143.14,30.52 38.44,0 74.73,-6.33 108.88,-18.99 34.14,-12.67 64.11,-31.66 89.89,-56.981 25.78,-25.328 46.13,-57.328 61.05,-95.988 14.93,-38.672 22.39,-83.789 22.39,-135.34" /><path
         id="path22"
         style="fill:#000000;fill-opacity:1;fill-rule:nonzero;stroke:none"
         d="m 2965.42,881.91 c 0,14.469 0.21,29.172 0.67,44.102 0.45,14.918 2.04,30.289 4.75,46.117 l -98.36,-5.418 v 58.339 c 30.29,0 54.95,1.02 73.94,3.05 19,2.04 34.26,4.85 45.79,8.48 11.54,3.62 20.46,7.57 26.8,11.87 6.33,4.3 12.21,8.92 17.64,13.91 h 40.02 c 0.9,-10.41 1.92,-22.28 3.05,-35.62 1.12,-13.34 2.15,-29.498 3.05,-48.498 14.93,13.11 31.32,25.328 49.19,36.628 17.86,11.3 36.52,21.14 55.96,29.52 19.44,8.36 39.46,14.92 60.04,19.66 20.58,4.75 40.81,7.12 60.72,7.12 80.49,0 139.29,-25.21 176.38,-75.631 37.08,-50.43 55.63,-128.789 55.63,-235.059 V 501.332 c 0,-18.543 -0.24,-34.934 -0.68,-49.184 -0.46,-14.25 -2.04,-29.289 -4.75,-45.117 l 87.51,4.078 V 354.121 H 3339.2 V 395.5 c 21.26,0 37.42,4.18 48.51,12.559 11.08,8.363 19.1,20.011 24.08,34.929 4.97,14.922 7.8,32.782 8.48,53.594 0.68,20.797 1.02,43.648 1.02,68.52 v 194.019 c -0.91,80.051 -14.02,140.309 -39.35,180.789 -25.33,40.469 -65.58,60.72 -120.75,60.72 -16.74,0 -33.48,-2.489 -50.2,-7.458 -16.74,-4.981 -32.8,-11.434 -48.16,-19.34 -15.38,-7.922 -29.85,-17.293 -43.42,-28.152 -13.57,-10.848 -25.33,-22.621 -35.28,-35.282 0.45,-8.136 0.68,-16.847 0.68,-26.117 0,-9.269 0,-18.652 0,-28.16 l -1.36,-354.789 c 0,-18.543 -0.23,-34.934 -0.68,-49.184 -0.45,-14.25 -2.03,-29.289 -4.74,-45.117 l 87.51,4.078 V 354.121 H 2881.97 V 395.5 c 21.26,0 37.42,4.18 48.51,12.559 11.07,8.363 18.99,20.011 23.74,34.929 4.75,14.922 7.46,32.782 8.14,53.594 0.68,20.797 1.24,43.648 1.7,68.52 l 1.36,316.808" /><path
         id="path24"
         style="fill:#000000;fill-opacity:1;fill-rule:nonzero;stroke:none"
         d="m 3892.18,343.27 h -71.91 l -8.14,295.769 h 53.59 c 2.72,-41.16 11.54,-77.219 26.46,-108.199 14.92,-30.981 34.48,-56.871 58.68,-77.668 24.18,-20.813 52.34,-36.531 84.46,-47.152 32.11,-10.629 66.48,-15.938 103.11,-15.938 27.14,0 52.81,3.727 77,11.188 24.19,7.46 45.45,18.539 63.77,33.242 18.31,14.687 32.79,32.898 43.41,54.609 10.63,21.711 15.95,46.578 15.95,74.617 0,33.934 -7.46,63.102 -22.39,87.512 -14.92,24.43 -34.71,46.02 -59.36,64.801 -24.66,18.758 -52.69,35.711 -84.12,50.879 -31.44,15.14 -63.43,30.289 -95.99,45.441 -32.56,15.149 -64.57,31.211 -95.99,48.168 -31.44,16.961 -59.47,36.633 -84.12,59.02 -24.66,22.39 -44.44,48.511 -59.36,78.351 -14.93,29.86 -22.39,65.35 -22.39,106.51 0,15.83 1.81,32.79 5.43,50.87 3.62,18.09 9.6,36.19 17.98,54.28 8.36,18.08 19.44,35.62 33.24,52.57 13.79,16.96 31.09,31.89 51.89,44.78 20.8,12.89 45.45,23.17 73.95,30.87 28.5,7.68 61.5,11.53 99.04,11.53 18.09,0 37.32,-1.13 57.67,-3.39 20.35,-2.28 41.04,-6.11 62.07,-11.53 21.03,-5.43 41.94,-12.79 62.75,-22.05 20.79,-9.28 40.71,-20.93 59.7,-34.95 l -5.43,59.71 h 70.56 v -304.6 h -50.21 c -2.26,33.55 -8.71,66.08 -19.33,97.59 -10.63,31.51 -26.12,59.4 -46.47,83.67 -20.35,24.25 -45.45,43.75 -75.3,58.49 -29.86,14.73 -65.13,22.11 -105.83,22.11 -28.95,0 -54.5,-4.43 -76.66,-13.25 -22.16,-8.84 -40.71,-20.74 -55.63,-35.68 -14.92,-14.96 -26.23,-32.28 -33.91,-51.99 -7.7,-19.72 -11.54,-40.44 -11.54,-62.18 0,-31.72 7.57,-59.25 22.73,-82.58 15.14,-23.34 35.15,-44.06 60.04,-62.178 24.86,-18.133 53.13,-34.66 84.79,-49.614 31.65,-14.949 64,-30 97.01,-45.148 33.01,-15.168 65.36,-31.449 97.02,-48.852 31.65,-17.41 59.92,-37.546 84.79,-60.378 24.86,-22.84 44.88,-49.411 60.04,-79.711 15.15,-30.297 22.72,-66.028 22.72,-107.18 0,-38.449 -7.23,-73.84 -21.7,-106.168 -14.49,-32.34 -35.51,-60.152 -63.09,-83.441 -27.6,-23.301 -61.63,-41.5 -102.1,-54.61 -40.48,-13.121 -86.49,-19.672 -138.06,-19.672 -20.8,0 -42.17,1.461 -64.1,4.403 -21.94,2.949 -43.65,7.359 -65.13,13.238 -21.48,5.871 -42.29,13.332 -62.41,22.383 -20.12,9.039 -38.78,19.437 -55.96,31.207 l 6.78,-59.699" /><path
         id="path26"
         style="fill:#000000;fill-opacity:1;fill-rule:nonzero;stroke:none"
         d="m 5158.63,945 c -6.34,16.281 -15.6,29.281 -27.81,39.012 -12.21,9.707 -25.44,17.288 -39.69,22.718 -14.25,5.43 -28.49,8.93 -42.74,10.52 -14.24,1.58 -26.12,2.37 -35.61,2.37 -31.66,0 -61.17,-6.44 -88.54,-19.33 -27.36,-12.899 -50.99,-31.778 -70.89,-56.649 -19.9,-24.879 -35.61,-55.852 -47.14,-92.942 -11.54,-37.078 -17.3,-79.597 -17.3,-127.527 0,-46.141 5.76,-88.762 17.3,-127.883 11.53,-39.129 27.69,-72.82 48.5,-101.078 20.8,-28.27 45.9,-50.32 75.3,-66.141 29.4,-15.84 61.96,-23.738 97.69,-23.738 21.71,0 43.18,3.039 64.44,9.148 21.26,6.11 41.39,14.59 60.38,25.442 19,10.859 36.52,23.508 52.58,38 16.05,14.457 29.73,30.058 41.04,46.797 l 35.95,-27.809 c -18.54,-28.961 -39.68,-53.711 -63.42,-74.289 -23.74,-20.582 -48.63,-37.551 -74.62,-50.879 -26.02,-13.351 -52.24,-23.172 -78.69,-29.512 -26.47,-6.332 -51.46,-9.492 -74.97,-9.492 -47.05,0 -91.36,8.032 -132.96,24.082 -41.61,16.051 -78.02,39.352 -109.22,69.879 -31.21,30.52 -55.86,67.93 -73.95,112.27 -18.09,44.32 -27.14,94.742 -27.14,151.281 0,32.102 3.96,63.77 11.88,94.969 7.91,31.203 19.33,60.941 34.26,89.211 14.92,28.261 33,54.492 54.26,78.691 21.26,24.188 45.35,45.121 72.26,62.749 26.89,17.64 56.3,31.43 88.18,41.38 31.89,9.94 65.7,14.92 101.43,14.92 38.43,0 73.49,-4.74 105.15,-14.23 31.65,-9.51 58.79,-22.17 81.4,-37.99 22.61,-15.84 40.02,-34.052 52.24,-54.618 12.21,-20.582 18.31,-42.172 18.31,-64.793 0,-19.898 -5.54,-36.969 -16.61,-51.207 -11.1,-14.25 -27.03,-21.602 -47.83,-22.051 -12.21,-0.461 -22.39,1.469 -30.53,5.758 -8.14,4.301 -14.7,9.609 -19.67,15.949 -4.99,6.332 -8.6,13.223 -10.86,20.692 -2.26,7.461 -3.39,14.121 -3.39,20.011 0,9.047 1.47,18.539 4.41,28.5 2.94,9.938 8.48,19.207 16.62,27.809" /><path
         id="path28"
         style="fill:#000000;fill-opacity:1;fill-rule:nonzero;stroke:none"
         d="m 5793.33,1018.26 c -36.63,0 -67.94,-8.15 -93.95,-24.451 -26.02,-16.297 -47.38,-38.028 -64.11,-65.188 -16.73,-27.16 -29.06,-58.402 -36.97,-93.73 -7.91,-35.309 -11.87,-71.981 -11.87,-110.012 0,-43.008 4.4,-84.891 13.22,-125.641 8.82,-40.738 22.28,-76.859 40.37,-108.316 18.08,-31.461 40.81,-56.692 68.18,-75.711 27.36,-19.02 59.35,-28.531 95.99,-28.531 36.64,0 67.5,8.261 92.6,24.789 25.1,16.519 45.45,38.371 61.06,65.531 15.6,27.16 26.79,58.18 33.58,93.039 6.78,34.859 10.18,70.633 10.18,107.313 0,41.648 -3.85,82.847 -11.54,123.597 -7.69,40.742 -19.91,77.192 -36.64,109.34 -16.73,32.133 -38.33,58.172 -64.78,78.09 -26.46,19.921 -58.23,29.881 -95.32,29.881 z m 0,52.91 c 48.85,0 94.53,-8.93 137.05,-26.78 42.5,-17.87 79.47,-42.52 110.9,-73.949 31.44,-31.441 56.31,-68.75 74.63,-111.929 18.31,-43.203 27.47,-89.891 27.47,-140.09 0,-53.832 -8.93,-104.25 -26.79,-151.281 -17.87,-47.039 -42.51,-87.969 -73.95,-122.789 -31.43,-34.84 -68.51,-62.313 -111.25,-82.422 -42.74,-20.121 -88.77,-30.192 -138.06,-30.192 -48.83,0 -94.41,8.711 -136.68,26.114 -42.3,17.41 -79.15,41.718 -110.58,72.929 -31.45,31.199 -56.2,68.399 -74.29,111.59 -18.09,43.188 -27.14,90.57 -27.14,142.121 0,54.719 8.93,105.719 26.8,152.977 17.86,47.261 42.4,88.203 73.6,122.801 31.21,34.589 68.07,61.72 110.58,81.4 42.51,19.67 88.42,29.5 137.71,29.5" /><path
         id="path30"
         style="fill:#000000;fill-opacity:1;fill-rule:nonzero;stroke:none"
         d="m 6707.55,995.199 c -17.64,0.449 -35.51,-2.828 -53.59,-9.84 -18.1,-7.019 -35.85,-17.289 -53.25,-30.867 -17.42,-13.562 -33.82,-29.844 -49.19,-48.832 -15.38,-19 -29.17,-40.031 -41.38,-63.101 l 1.36,-341.227 c 0,-18.543 -0.24,-34.934 -0.68,-49.184 -0.46,-14.25 -2.04,-29.289 -4.75,-45.117 l 87.51,4.078 V 354.121 H 6308.66 V 395.5 c 21.25,0 37.42,4.18 48.5,12.559 11.08,8.363 19.1,20.011 24.09,34.929 4.97,14.922 7.8,32.782 8.47,53.594 0.69,20.797 1.03,43.648 1.03,68.52 V 882.59 c 0,14.461 0.21,29.051 0.67,43.75 0.45,14.699 2.03,29.961 4.75,45.789 l -98.36,-4.059 v 56.98 h 42.73 c 19.89,0 36.4,1.02 49.52,3.05 13.12,2.04 24.09,4.85 32.9,8.48 8.82,3.62 16.17,7.57 22.05,11.87 5.87,4.3 11.54,8.92 16.97,13.91 H 6502 c 1.35,-14.48 2.59,-32.46 3.73,-53.93 1.12,-21.481 2.14,-49.192 3.05,-83.11 10.4,17.192 23.74,34.489 40.02,51.899 16.28,17.41 34.6,33.011 54.95,46.821 20.36,13.78 42.29,25.09 65.81,33.91 23.51,8.82 47.71,13.22 72.58,13.22 12.66,0 24.99,-1.69 36.98,-5.08 11.98,-3.39 22.39,-8.72 31.21,-15.94 8.82,-7.24 15.93,-16.28 21.36,-27.14 5.43,-10.85 8.15,-23.971 8.15,-39.35 0,-6.328 -1.25,-13.34 -3.73,-21.019 -2.5,-7.7 -6.56,-14.922 -12.22,-21.711 -5.66,-6.789 -12.78,-12.438 -21.37,-16.961 -8.59,-4.52 -19.22,-6.778 -31.88,-6.778 -10.41,0 -19.8,2.258 -28.15,6.778 -8.37,4.523 -15.39,10.281 -21.03,17.301 -5.66,7 -9.74,15.152 -12.22,24.421 -2.49,9.258 -3.04,19.098 -1.69,29.508" /><path
         id="path32"
         style="fill:#000000;fill-opacity:1;fill-rule:nonzero;stroke:none"
         d="m 7314.65,1016.23 c -54.26,0 -99.04,-15.89 -134.31,-47.66 -35.29,-31.789 -58.58,-83.289 -69.89,-154.5 h 354.13 c 0,24.34 -2.72,48.559 -8.14,72.68 -5.43,24.121 -14.14,45.75 -26.12,64.898 -11.99,19.161 -27.47,34.711 -46.47,46.653 -18.99,11.959 -42.06,17.929 -69.2,17.929 z m 280.85,-252.359 -489.11,-8.152 c -0.46,-53.469 3.61,-101.949 12.21,-145.449 8.58,-43.5 22.16,-80.661 40.7,-111.469 18.54,-30.813 42.4,-54.602 71.57,-71.371 29.17,-16.758 64.11,-25.141 104.81,-25.141 21.71,0 43.87,2.961 66.48,8.871 22.61,5.91 44.44,13.981 65.47,24.219 21.03,10.242 40.36,22.512 58,36.851 17.64,14.321 32.33,29.68 44.1,46.059 l 33.92,-27.809 c -19,-28.941 -41.05,-53.488 -66.15,-73.601 -25.09,-20.141 -51.11,-36.539 -78.01,-49.188 -26.92,-12.671 -53.93,-21.812 -81.07,-27.472 -27.14,-5.66 -52.47,-8.481 -75.97,-8.481 -47.95,0 -92.61,8.594 -133.99,25.774 -41.38,17.187 -77.22,41.828 -107.53,73.949 -30.3,32.109 -54.16,70.781 -71.56,116 -17.42,45.219 -26.12,96.098 -26.12,152.641 0,48.847 8.37,95.539 25.09,140.089 16.73,44.539 40.48,84 71.24,118.379 30.75,34.36 67.6,61.72 110.58,82.08 42.96,20.35 90.67,30.52 143.14,30.52 38.43,0 74.72,-6.33 108.87,-18.99 34.15,-12.67 64.11,-31.66 89.9,-56.981 25.78,-25.328 46.13,-57.328 61.05,-95.988 14.92,-38.672 22.38,-83.789 22.38,-135.34" /></g></g></svg>